<svg aria-hidden="true" style="position: absolute; width: 0; height: 0; overflow: hidden;" version="1.1" xmlns="http://www.w3.org/2000/svg" xmlns:xlink="http://www.w3.org/1999/xlink">
<defs>
<symbol id="icon-office" viewBox="0 0 32 32">
<path d="M0 32h16v-32h-16v32zM10 4h4v4h-4v-4zM10 12h4v4h-4v-4zM10 20h4v4h-4v-4zM2 4h4v4h-4v-4zM2 12h4v4h-4v-4zM2 20h4v4h-4v-4zM18 10h14v2h-14zM18 32h4v-8h6v8h4v-18h-14z"></path>
</symbol>
<symbol id="icon-pen" viewBox="0 0 32 32">
<path d="M31.818 9.122l-8.939-8.939c-0.292-0.292-0.676-0.226-0.855 0.146l-1.199 2.497 8.35 8.35 2.497-1.199c0.372-0.178 0.438-0.563 0.146-0.855z"></path>
<path d="M19.231 4.231l-8.231 0.686c-0.547 0.068-1.002 0.184-1.159 0.899-0 0.001-0 0.001-0.001 0.002-2.232 10.721-9.84 21.183-9.84 21.183l1.793 1.793 8.5-8.5c-0.187-0.392-0.293-0.83-0.293-1.293 0-1.657 1.343-3 3-3s3 1.343 3 3-1.343 3-3 3c-0.463 0-0.902-0.105-1.293-0.293l-8.5 8.5 1.793 1.793c0 0 10.462-7.608 21.183-9.84 0.001-0 0.001-0 0.002-0.001 0.714-0.157 0.831-0.612 0.898-1.159l0.686-8.231-8.538-8.539z"></path>
</symbol>
<symbol id="icon-credit-card" viewBox="0 0 32 32">
<path d="M29 4h-26c-1.65 0-3 1.35-3 3v18c0 1.65 1.35 3 3 3h26c1.65 0 3-1.35 3-3v-18c0-1.65-1.35-3-3-3zM3 6h26c0.542 0 1 0.458 1 1v3h-28v-3c0-0.542 0.458-1 1-1zM29 26h-26c-0.542 0-1-0.458-1-1v-9h28v9c0 0.542-0.458 1-1 1zM4 20h2v4h-2zM8 20h2v4h-2zM12 20h2v4h-2z"></path>
</symbol>
<symbol id="icon-location" viewBox="0 0 32 32">
<path d="M16 0c-5.523 0-10 4.477-10 10 0 10 10 22 10 22s10-12 10-22c0-5.523-4.477-10-10-10zM16 16c-3.314 0-6-2.686-6-6s2.686-6 6-6 6 2.686 6 6-2.686 6-6 6z"></path>
</symbol>
<symbol id="icon-download" viewBox="0 0 32 32">
<path d="M16 18l8-8h-6v-8h-4v8h-6zM23.273 14.727l-2.242 2.242 8.128 3.031-13.158 4.907-13.158-4.907 8.127-3.031-2.242-2.242-8.727 3.273v8l16 6 16-6v-8z"></path>
</symbol>
<symbol id="icon-undo2" viewBox="0 0 32 32">
<path d="M23.808 32c3.554-6.439 4.153-16.26-9.808-15.932v7.932l-12-12 12-12v7.762c16.718-0.436 18.58 14.757 9.808 24.238z"></path>
</symbol>
<symbol id="icon-redo2" viewBox="0 0 32 32">
<path d="M18 7.762v-7.762l12 12-12 12v-7.932c-13.961-0.328-13.362 9.493-9.808 15.932-8.772-9.482-6.909-24.674 9.808-24.238z"></path>
</symbol>
<symbol id="icon-bubbles" viewBox="0 0 36 32">
<path d="M34 28.161c0 1.422 0.813 2.653 2 3.256v0.498c-0.332 0.045-0.671 0.070-1.016 0.070-2.125 0-4.042-0.892-5.398-2.321-0.819 0.218-1.688 0.336-2.587 0.336-4.971 0-9-3.582-9-8s4.029-8 9-8c4.971 0 9 3.582 9 8 0 1.73-0.618 3.331-1.667 4.64-0.213 0.463-0.333 0.979-0.333 1.522zM16 0c8.702 0 15.781 5.644 15.995 12.672-1.537-0.685-3.237-1.047-4.995-1.047-2.986 0-5.807 1.045-7.942 2.943-2.214 1.968-3.433 4.607-3.433 7.432 0 1.396 0.298 2.747 0.867 3.993-0.163 0.004-0.327 0.007-0.492 0.007-0.849 0-1.682-0.054-2.495-0.158-3.437 3.437-7.539 4.053-11.505 4.144v-0.841c2.142-1.049 4-2.961 4-5.145 0-0.305-0.024-0.604-0.068-0.897-3.619-2.383-5.932-6.024-5.932-10.103 0-7.18 7.163-13 16-13z"></path>
</symbol>
<symbol id="icon-bubbles4" viewBox="0 0 36 32">
<path d="M15 4c-1.583 0-3.112 0.248-4.543 0.738-1.341 0.459-2.535 1.107-3.547 1.926-1.876 1.518-2.91 3.463-2.91 5.474 0 1.125 0.315 2.217 0.935 3.247 0.646 1.073 1.622 2.056 2.821 2.842 0.951 0.624 1.592 1.623 1.761 2.748 0.028 0.187 0.051 0.375 0.068 0.564 0.085-0.079 0.169-0.16 0.254-0.244 0.754-0.751 1.771-1.166 2.823-1.166 0.167 0 0.335 0.011 0.503 0.032 0.605 0.077 1.223 0.116 1.836 0.116 1.583 0 3.112-0.248 4.543-0.738 1.341-0.459 2.535-1.107 3.547-1.926 1.876-1.518 2.91-3.463 2.91-5.474s-1.033-3.956-2.91-5.474c-1.012-0.819-2.206-1.467-3.547-1.926-1.431-0.49-2.96-0.738-4.543-0.738zM15 0v0c8.284 0 15 5.435 15 12.139s-6.716 12.139-15 12.139c-0.796 0-1.576-0.051-2.339-0.147-3.222 3.209-6.943 3.785-10.661 3.869v-0.785c2.008-0.98 3.625-2.765 3.625-4.804 0-0.285-0.022-0.564-0.063-0.837-3.392-2.225-5.562-5.625-5.562-9.434 0-6.704 6.716-12.139 15-12.139zM31.125 27.209c0 1.748 1.135 3.278 2.875 4.118v0.673c-3.223-0.072-6.181-0.566-8.973-3.316-0.661 0.083-1.337 0.126-2.027 0.126-2.983 0-5.732-0.805-7.925-2.157 4.521-0.016 8.789-1.464 12.026-4.084 1.631-1.32 2.919-2.87 3.825-4.605 0.961-1.84 1.449-3.799 1.449-5.825 0-0.326-0.014-0.651-0.039-0.974 2.268 1.873 3.664 4.426 3.664 7.24 0 3.265-1.88 6.179-4.82 8.086-0.036 0.234-0.055 0.474-0.055 0.718z"></path>
</symbol>
<symbol id="icon-users" viewBox="0 0 36 32">
<path d="M24 24.082v-1.649c2.203-1.241 4-4.337 4-7.432 0-4.971 0-9-6-9s-6 4.029-6 9c0 3.096 1.797 6.191 4 7.432v1.649c-6.784 0.555-12 3.888-12 7.918h28c0-4.030-5.216-7.364-12-7.918z"></path>
<path d="M10.225 24.854c1.728-1.13 3.877-1.989 6.243-2.513-0.47-0.556-0.897-1.176-1.265-1.844-0.95-1.726-1.453-3.627-1.453-5.497 0-2.689 0-5.228 0.956-7.305 0.928-2.016 2.598-3.265 4.976-3.734-0.529-2.39-1.936-3.961-5.682-3.961-6 0-6 4.029-6 9 0 3.096 1.797 6.191 4 7.432v1.649c-6.784 0.555-12 3.888-12 7.918h8.719c0.454-0.403 0.956-0.787 1.506-1.146z"></path>
</symbol>
<symbol id="icon-spinner9" viewBox="0 0 32 32">
<path d="M16 0c-8.711 0-15.796 6.961-15.995 15.624 0.185-7.558 5.932-13.624 12.995-13.624 7.18 0 13 6.268 13 14 0 1.657 1.343 3 3 3s3-1.343 3-3c0-8.837-7.163-16-16-16zM16 32c8.711 0 15.796-6.961 15.995-15.624-0.185 7.558-5.932 13.624-12.995 13.624-7.18 0-13-6.268-13-14 0-1.657-1.343-3-3-3s-3 1.343-3 3c0 8.837 7.163 16 16 16z"></path>
</symbol>
<symbol id="icon-spinner10" viewBox="0 0 32 32">
<path d="M0.001 16.051l-0.001 0c0 0 0 0.003 0.001 0.007 0.003 0.121 0.017 0.24 0.041 0.355 0.006 0.055 0.013 0.114 0.021 0.18 0.007 0.059 0.014 0.122 0.022 0.19 0.012 0.080 0.024 0.165 0.037 0.256 0.027 0.18 0.056 0.379 0.091 0.592 0.042 0.201 0.088 0.419 0.136 0.652 0.022 0.116 0.055 0.235 0.087 0.356s0.065 0.247 0.099 0.375c0.018 0.064 0.032 0.129 0.053 0.194s0.041 0.131 0.062 0.197 0.085 0.268 0.129 0.406c0.011 0.035 0.022 0.069 0.033 0.104 0.013 0.034 0.025 0.069 0.038 0.104 0.026 0.069 0.052 0.139 0.078 0.21 0.053 0.14 0.107 0.284 0.162 0.429 0.061 0.143 0.124 0.288 0.188 0.435 0.032 0.073 0.064 0.147 0.096 0.222s0.071 0.147 0.107 0.221c0.073 0.147 0.146 0.297 0.221 0.448 0.077 0.15 0.163 0.297 0.245 0.448 0.042 0.075 0.084 0.15 0.126 0.226s0.091 0.148 0.136 0.223c0.092 0.148 0.185 0.298 0.279 0.448 0.395 0.59 0.834 1.174 1.319 1.727 0.491 0.549 1.023 1.070 1.584 1.55 0.568 0.473 1.165 0.903 1.773 1.285 0.613 0.376 1.239 0.697 1.856 0.973 0.156 0.064 0.311 0.127 0.465 0.19 0.077 0.030 0.152 0.064 0.229 0.091s0.154 0.054 0.23 0.081 0.302 0.108 0.453 0.156c0.151 0.045 0.3 0.089 0.447 0.133 0.074 0.021 0.146 0.045 0.219 0.063s0.146 0.036 0.218 0.053c0.144 0.035 0.286 0.069 0.425 0.103 0.141 0.027 0.279 0.054 0.415 0.080 0.068 0.013 0.135 0.026 0.201 0.038 0.033 0.006 0.066 0.012 0.099 0.019 0.033 0.005 0.066 0.009 0.099 0.014 0.131 0.018 0.259 0.036 0.384 0.053 0.062 0.009 0.124 0.017 0.185 0.026s0.122 0.012 0.182 0.018c0.119 0.011 0.236 0.021 0.349 0.031s0.222 0.021 0.329 0.023c0.007 0 0.014 0 0.021 0.001 0.019 1.088 0.906 1.964 1.999 1.964 0.017 0 0.034-0.001 0.051-0.001v0.001c0 0 0.003-0 0.007-0.001 0.121-0.003 0.24-0.017 0.355-0.041 0.055-0.006 0.114-0.013 0.18-0.021 0.059-0.007 0.122-0.014 0.19-0.022 0.080-0.012 0.165-0.024 0.256-0.037 0.18-0.027 0.379-0.056 0.592-0.091 0.201-0.042 0.419-0.088 0.652-0.136 0.116-0.022 0.235-0.056 0.356-0.087s0.247-0.065 0.375-0.099c0.064-0.018 0.129-0.032 0.194-0.053s0.13-0.041 0.197-0.062 0.268-0.085 0.406-0.129c0.035-0.011 0.069-0.022 0.104-0.033 0.034-0.013 0.069-0.025 0.104-0.038 0.069-0.026 0.139-0.052 0.21-0.078 0.14-0.053 0.284-0.107 0.429-0.162 0.143-0.061 0.288-0.124 0.436-0.188 0.073-0.032 0.147-0.064 0.222-0.096s0.147-0.071 0.221-0.107c0.147-0.073 0.297-0.146 0.448-0.221 0.15-0.077 0.297-0.163 0.448-0.245 0.075-0.042 0.15-0.084 0.226-0.126s0.148-0.091 0.223-0.136c0.148-0.092 0.298-0.185 0.448-0.279 0.59-0.395 1.174-0.834 1.727-1.319 0.549-0.491 1.070-1.023 1.55-1.584 0.473-0.568 0.903-1.165 1.285-1.773 0.376-0.613 0.697-1.239 0.973-1.855 0.064-0.156 0.127-0.311 0.19-0.465 0.030-0.077 0.064-0.152 0.091-0.229s0.054-0.154 0.081-0.23 0.108-0.302 0.156-0.453c0.045-0.151 0.089-0.3 0.133-0.447 0.021-0.074 0.045-0.146 0.063-0.219s0.036-0.146 0.053-0.218c0.035-0.144 0.069-0.286 0.103-0.425 0.027-0.141 0.054-0.279 0.080-0.415 0.013-0.068 0.026-0.135 0.038-0.201 0.006-0.033 0.012-0.066 0.019-0.099 0.005-0.033 0.009-0.066 0.014-0.099 0.018-0.131 0.036-0.259 0.053-0.384 0.009-0.062 0.017-0.124 0.026-0.185s0.012-0.122 0.018-0.182c0.011-0.119 0.021-0.236 0.031-0.349s0.021-0.222 0.023-0.329c0.001-0.017 0.001-0.033 0.002-0.049 1.101-0.005 1.992-0.898 1.992-2 0-0.017-0.001-0.034-0.001-0.051h0.001c0 0-0-0.003-0.001-0.007-0.003-0.121-0.017-0.24-0.041-0.355-0.006-0.055-0.013-0.114-0.021-0.181-0.007-0.059-0.014-0.122-0.022-0.19-0.012-0.080-0.024-0.165-0.037-0.255-0.027-0.18-0.056-0.379-0.091-0.592-0.042-0.201-0.088-0.419-0.136-0.652-0.022-0.116-0.055-0.235-0.087-0.357s-0.065-0.247-0.099-0.375c-0.018-0.064-0.032-0.129-0.053-0.194s-0.041-0.13-0.062-0.197-0.085-0.268-0.129-0.406c-0.011-0.034-0.022-0.069-0.033-0.104-0.013-0.034-0.025-0.069-0.038-0.104-0.026-0.069-0.052-0.139-0.078-0.21-0.053-0.141-0.107-0.284-0.162-0.429-0.061-0.143-0.124-0.288-0.188-0.435-0.032-0.073-0.064-0.147-0.096-0.222s-0.071-0.147-0.107-0.221c-0.073-0.147-0.146-0.297-0.221-0.448-0.077-0.15-0.163-0.297-0.245-0.448-0.042-0.075-0.084-0.15-0.126-0.226s-0.091-0.148-0.136-0.223c-0.092-0.148-0.185-0.298-0.279-0.448-0.395-0.59-0.834-1.174-1.319-1.727-0.491-0.549-1.023-1.070-1.584-1.55-0.568-0.473-1.165-0.903-1.773-1.285-0.613-0.376-1.239-0.697-1.855-0.973-0.156-0.064-0.311-0.127-0.465-0.19-0.077-0.030-0.152-0.063-0.229-0.091s-0.154-0.054-0.23-0.081-0.302-0.108-0.453-0.156c-0.151-0.045-0.3-0.089-0.447-0.133-0.074-0.021-0.146-0.045-0.219-0.063s-0.146-0.036-0.218-0.053c-0.144-0.035-0.286-0.069-0.425-0.103-0.141-0.027-0.279-0.054-0.415-0.080-0.068-0.013-0.135-0.026-0.201-0.038-0.033-0.006-0.066-0.012-0.099-0.019-0.033-0.005-0.066-0.009-0.099-0.014-0.131-0.018-0.259-0.036-0.384-0.053-0.062-0.009-0.124-0.017-0.185-0.026s-0.122-0.012-0.182-0.018c-0.119-0.010-0.236-0.021-0.349-0.031s-0.222-0.021-0.329-0.023c-0.027-0.001-0.052-0.002-0.078-0.003-0.020-1.087-0.907-1.962-1.999-1.962-0.017 0-0.034 0.001-0.051 0.001l-0-0.001c0 0-0.003 0-0.007 0.001-0.121 0.003-0.24 0.017-0.355 0.041-0.055 0.006-0.114 0.013-0.181 0.021-0.059 0.007-0.122 0.014-0.19 0.022-0.080 0.012-0.165 0.024-0.255 0.037-0.18 0.027-0.379 0.056-0.592 0.091-0.201 0.042-0.419 0.088-0.652 0.136-0.116 0.022-0.235 0.056-0.356 0.087s-0.247 0.065-0.375 0.099c-0.064 0.018-0.129 0.032-0.194 0.053s-0.13 0.041-0.197 0.062-0.268 0.085-0.406 0.129c-0.034 0.011-0.069 0.022-0.104 0.033-0.034 0.013-0.069 0.025-0.104 0.038-0.069 0.026-0.139 0.052-0.21 0.078-0.14 0.053-0.284 0.107-0.429 0.162-0.143 0.061-0.288 0.124-0.435 0.188-0.073 0.032-0.147 0.064-0.222 0.096s-0.147 0.071-0.221 0.107c-0.147 0.073-0.297 0.146-0.448 0.221-0.15 0.077-0.297 0.163-0.448 0.245-0.075 0.042-0.15 0.084-0.226 0.126s-0.148 0.091-0.223 0.136c-0.148 0.092-0.298 0.185-0.448 0.279-0.59 0.395-1.174 0.834-1.727 1.319-0.549 0.491-1.070 1.023-1.55 1.584-0.473 0.568-0.903 1.165-1.285 1.773-0.376 0.613-0.697 1.239-0.973 1.855-0.064 0.156-0.127 0.311-0.19 0.465-0.030 0.077-0.063 0.152-0.091 0.229s-0.054 0.154-0.081 0.23-0.108 0.302-0.156 0.453c-0.045 0.151-0.089 0.3-0.132 0.447-0.021 0.074-0.045 0.146-0.063 0.219s-0.036 0.146-0.053 0.218c-0.035 0.144-0.069 0.286-0.103 0.425-0.027 0.141-0.054 0.279-0.080 0.415-0.013 0.068-0.026 0.135-0.038 0.201-0.006 0.033-0.012 0.066-0.019 0.099-0.005 0.033-0.009 0.066-0.014 0.099-0.018 0.131-0.036 0.259-0.053 0.384-0.009 0.062-0.017 0.124-0.026 0.185s-0.012 0.122-0.018 0.182c-0.010 0.119-0.021 0.236-0.031 0.349s-0.021 0.222-0.023 0.329c-0.001 0.017-0.001 0.034-0.002 0.051-1.074 0.035-1.934 0.916-1.934 1.998 0 0.017 0.001 0.034 0.001 0.051zM2.297 14.022c0.001-0.006 0.003-0.012 0.004-0.018 0.020-0.101 0.051-0.204 0.080-0.311s0.059-0.215 0.090-0.327c0.016-0.056 0.029-0.113 0.048-0.169s0.038-0.113 0.057-0.171 0.077-0.233 0.117-0.353c0.010-0.030 0.020-0.060 0.030-0.090 0.012-0.030 0.023-0.060 0.035-0.090 0.023-0.060 0.047-0.121 0.071-0.182 0.047-0.122 0.096-0.246 0.145-0.373 0.055-0.124 0.111-0.25 0.168-0.377 0.028-0.064 0.057-0.128 0.086-0.192s0.064-0.127 0.095-0.191c0.065-0.128 0.13-0.257 0.197-0.388 0.069-0.129 0.145-0.257 0.219-0.387 0.037-0.065 0.074-0.13 0.112-0.195s0.081-0.128 0.121-0.193c0.082-0.128 0.164-0.257 0.247-0.388 0.351-0.509 0.739-1.012 1.167-1.489 0.434-0.472 0.901-0.919 1.394-1.33 0.499-0.404 1.021-0.77 1.552-1.094 0.535-0.319 1.081-0.589 1.617-0.821 0.136-0.053 0.271-0.106 0.404-0.158 0.067-0.025 0.132-0.053 0.199-0.076s0.134-0.045 0.2-0.067 0.262-0.090 0.392-0.129c0.131-0.037 0.26-0.073 0.387-0.109 0.064-0.017 0.126-0.037 0.189-0.052s0.126-0.029 0.189-0.043c0.124-0.028 0.247-0.056 0.367-0.084 0.121-0.021 0.241-0.043 0.358-0.063 0.058-0.010 0.116-0.021 0.173-0.031 0.029-0.005 0.057-0.010 0.085-0.015 0.029-0.003 0.057-0.007 0.085-0.010 0.113-0.014 0.223-0.028 0.331-0.041 0.054-0.007 0.107-0.013 0.159-0.020s0.105-0.008 0.157-0.013c0.103-0.007 0.203-0.015 0.3-0.022s0.191-0.016 0.283-0.016c0.183-0.004 0.354-0.008 0.512-0.012 0.146 0.005 0.28 0.010 0.401 0.014 0.060 0.002 0.116 0.003 0.17 0.005 0.066 0.004 0.128 0.008 0.186 0.012 0.067 0.004 0.127 0.008 0.182 0.012 0.102 0.016 0.206 0.024 0.312 0.024 0.015 0 0.029-0.001 0.044-0.001 0.004 0 0.007 0 0.007 0v-0.001c0.973-0.024 1.773-0.743 1.924-1.68 0.017 0.004 0.033 0.007 0.050 0.011 0.101 0.020 0.204 0.051 0.311 0.080s0.215 0.059 0.327 0.090c0.056 0.016 0.113 0.029 0.169 0.048s0.113 0.038 0.171 0.057 0.233 0.077 0.353 0.117c0.030 0.010 0.060 0.020 0.090 0.030 0.030 0.012 0.060 0.023 0.090 0.035 0.060 0.023 0.121 0.047 0.182 0.071 0.122 0.047 0.246 0.096 0.373 0.145 0.124 0.055 0.25 0.111 0.378 0.168 0.064 0.028 0.128 0.057 0.192 0.086s0.127 0.064 0.191 0.095c0.128 0.065 0.257 0.13 0.388 0.197 0.13 0.069 0.257 0.145 0.387 0.219 0.065 0.037 0.13 0.074 0.195 0.112s0.128 0.081 0.193 0.121c0.128 0.082 0.257 0.164 0.388 0.247 0.509 0.351 1.012 0.739 1.489 1.167 0.472 0.434 0.919 0.901 1.33 1.394 0.404 0.499 0.77 1.021 1.094 1.552 0.319 0.535 0.589 1.081 0.821 1.617 0.053 0.136 0.106 0.271 0.158 0.404 0.025 0.067 0.053 0.132 0.076 0.199s0.045 0.134 0.067 0.2 0.090 0.262 0.129 0.392c0.037 0.131 0.073 0.26 0.109 0.387 0.017 0.064 0.037 0.126 0.052 0.189s0.029 0.126 0.043 0.189c0.028 0.124 0.056 0.247 0.084 0.367 0.021 0.121 0.043 0.241 0.063 0.358 0.010 0.058 0.020 0.116 0.031 0.173 0.005 0.029 0.010 0.057 0.015 0.085 0.003 0.029 0.007 0.057 0.010 0.085 0.014 0.113 0.028 0.223 0.041 0.331 0.007 0.054 0.014 0.107 0.020 0.159s0.008 0.105 0.013 0.157c0.007 0.103 0.015 0.203 0.022 0.3s0.016 0.191 0.016 0.283c0.004 0.183 0.008 0.354 0.012 0.512-0.005 0.146-0.010 0.28-0.014 0.401-0.002 0.060-0.003 0.116-0.005 0.17-0.004 0.066-0.008 0.128-0.012 0.186-0.004 0.067-0.008 0.127-0.012 0.182-0.016 0.102-0.024 0.206-0.024 0.312 0 0.015 0.001 0.029 0.001 0.044-0 0.004-0 0.007-0 0.007h0.001c0.024 0.961 0.726 1.754 1.646 1.918-0.002 0.009-0.004 0.018-0.006 0.028-0.020 0.102-0.051 0.204-0.080 0.311s-0.059 0.215-0.090 0.327c-0.016 0.056-0.029 0.113-0.048 0.169s-0.038 0.113-0.057 0.171-0.077 0.233-0.117 0.353c-0.010 0.030-0.020 0.060-0.030 0.090-0.012 0.030-0.023 0.060-0.035 0.090-0.023 0.060-0.047 0.121-0.071 0.182-0.047 0.122-0.096 0.246-0.145 0.373-0.055 0.124-0.111 0.25-0.169 0.378-0.028 0.064-0.057 0.128-0.086 0.192s-0.064 0.127-0.095 0.191c-0.065 0.128-0.13 0.257-0.197 0.388-0.069 0.129-0.145 0.257-0.219 0.387-0.037 0.065-0.074 0.13-0.112 0.195s-0.081 0.128-0.121 0.193c-0.082 0.128-0.164 0.257-0.247 0.388-0.351 0.509-0.738 1.012-1.167 1.489-0.434 0.472-0.901 0.919-1.394 1.33-0.499 0.404-1.021 0.77-1.552 1.094-0.535 0.319-1.081 0.589-1.617 0.821-0.136 0.053-0.271 0.106-0.404 0.158-0.067 0.025-0.132 0.053-0.199 0.076s-0.134 0.045-0.2 0.067-0.262 0.090-0.392 0.129c-0.131 0.037-0.26 0.073-0.387 0.109-0.064 0.017-0.126 0.037-0.189 0.052s-0.126 0.029-0.189 0.043c-0.124 0.028-0.247 0.056-0.367 0.084-0.122 0.021-0.241 0.043-0.358 0.063-0.058 0.010-0.116 0.021-0.173 0.031-0.029 0.005-0.057 0.010-0.085 0.015-0.029 0.003-0.057 0.007-0.085 0.010-0.113 0.014-0.223 0.028-0.331 0.041-0.054 0.007-0.107 0.014-0.159 0.020s-0.105 0.008-0.157 0.013c-0.103 0.007-0.203 0.015-0.3 0.022s-0.191 0.016-0.283 0.016c-0.183 0.004-0.354 0.008-0.512 0.012-0.146-0.005-0.28-0.010-0.401-0.014-0.060-0.002-0.116-0.003-0.17-0.005-0.066-0.004-0.128-0.008-0.186-0.012-0.067-0.004-0.127-0.008-0.182-0.012-0.102-0.016-0.206-0.024-0.312-0.024-0.015 0-0.029 0.001-0.044 0.001-0.004-0-0.007-0-0.007-0v0.001c-0.969 0.024-1.766 0.737-1.921 1.668-0.1-0.020-0.201-0.050-0.306-0.079-0.106-0.029-0.215-0.059-0.327-0.090-0.056-0.016-0.113-0.029-0.169-0.048s-0.113-0.038-0.171-0.057-0.233-0.077-0.353-0.117c-0.030-0.010-0.060-0.020-0.090-0.030-0.030-0.012-0.060-0.023-0.090-0.035-0.060-0.023-0.121-0.047-0.182-0.071-0.122-0.048-0.246-0.096-0.373-0.145-0.124-0.055-0.25-0.111-0.377-0.168-0.064-0.028-0.128-0.057-0.192-0.086s-0.127-0.064-0.191-0.095c-0.128-0.065-0.257-0.13-0.388-0.197-0.13-0.069-0.257-0.145-0.387-0.219-0.065-0.037-0.13-0.074-0.195-0.112s-0.128-0.081-0.193-0.121c-0.128-0.082-0.257-0.164-0.388-0.247-0.509-0.351-1.012-0.738-1.489-1.166-0.472-0.434-0.919-0.901-1.33-1.394-0.404-0.499-0.77-1.021-1.094-1.552-0.319-0.535-0.589-1.081-0.821-1.617-0.053-0.136-0.106-0.271-0.158-0.404-0.025-0.067-0.053-0.132-0.076-0.199s-0.045-0.134-0.067-0.2-0.090-0.262-0.129-0.392c-0.037-0.131-0.073-0.26-0.109-0.387-0.017-0.064-0.037-0.126-0.052-0.189s-0.029-0.126-0.043-0.189c-0.028-0.124-0.056-0.247-0.084-0.367-0.021-0.121-0.043-0.241-0.063-0.358-0.010-0.058-0.021-0.116-0.031-0.173-0.005-0.029-0.010-0.057-0.015-0.085-0.003-0.029-0.007-0.057-0.010-0.085-0.014-0.113-0.028-0.223-0.041-0.331-0.007-0.054-0.013-0.107-0.020-0.159s-0.008-0.105-0.013-0.157c-0.007-0.103-0.015-0.203-0.022-0.3s-0.016-0.191-0.016-0.283c-0.004-0.183-0.008-0.354-0.012-0.512 0.005-0.146 0.010-0.28 0.014-0.401 0.002-0.060 0.003-0.116 0.005-0.17 0.004-0.066 0.008-0.128 0.012-0.186 0.004-0.067 0.008-0.127 0.012-0.182 0.015-0.102 0.024-0.206 0.024-0.312 0-0.015-0.001-0.029-0.001-0.044 0-0.004 0.001-0.007 0.001-0.007h-0.001c-0.024-0.981-0.754-1.786-1.701-1.927z"></path>
</symbol>
<symbol id="icon-search" viewBox="0 0 32 32">
<path d="M31.008 27.231l-7.58-6.447c-0.784-0.705-1.622-1.029-2.299-0.998 1.789-2.096 2.87-4.815 2.87-7.787 0-6.627-5.373-12-12-12s-12 5.373-12 12 5.373 12 12 12c2.972 0 5.691-1.081 7.787-2.87-0.031 0.677 0.293 1.515 0.998 2.299l6.447 7.58c1.104 1.226 2.907 1.33 4.007 0.23s0.997-2.903-0.23-4.007zM12 20c-4.418 0-8-3.582-8-8s3.582-8 8-8 8 3.582 8 8-3.582 8-8 8z"></path>
</symbol>
<symbol id="icon-stats-bars" viewBox="0 0 32 32">
<path d="M0 26h32v4h-32zM4 18h4v6h-4zM10 10h4v14h-4zM16 16h4v8h-4zM22 4h4v20h-4z"></path>
</symbol>
<symbol id="icon-trophy" viewBox="0 0 32 32">
<path d="M26 6v-4h-20v4h-6v4c0 3.314 2.686 6 6 6 0.627 0 1.232-0.096 1.801-0.275 1.443 2.063 3.644 3.556 6.199 4.075v6.2h-2c-2.209 0-4 1.791-4 4h16c0-2.209-1.791-4-4-4h-2v-6.2c2.555-0.519 4.756-2.012 6.199-4.075 0.568 0.179 1.173 0.275 1.801 0.275 3.314 0 6-2.686 6-6v-4h-6zM6 13.625c-1.999 0-3.625-1.626-3.625-3.625v-2h3.625v2c0 1.256 0.232 2.457 0.655 3.565-0.213 0.039-0.431 0.060-0.655 0.060zM29.625 10c0 1.999-1.626 3.625-3.625 3.625-0.224 0-0.442-0.021-0.655-0.060 0.423-1.107 0.655-2.309 0.655-3.565v-2h3.625v2z"></path>
</symbol>
<symbol id="icon-rocket" viewBox="0 0 32 32">
<path d="M22 2l-10 10h-6l-6 8c0 0 6.357-1.77 10.065-0.94l-10.065 12.94 13.184-10.255c1.839 4.208-1.184 10.255-1.184 10.255l8-6v-6l10-10 2-10-10 2z"></path>
</symbol>
<symbol id="icon-fire" viewBox="0 0 32 32">
<path d="M10.031 32c-2.133-4.438-0.997-6.981 0.642-9.376 1.795-2.624 2.258-5.221 2.258-5.221s1.411 1.834 0.847 4.703c2.493-2.775 2.963-7.196 2.587-8.889 5.635 3.938 8.043 12.464 4.798 18.783 17.262-9.767 4.294-24.38 2.036-26.027 0.753 1.646 0.895 4.433-0.625 5.785-2.573-9.759-8.937-11.759-8.937-11.759 0.753 5.033-2.728 10.536-6.084 14.648-0.118-2.007-0.243-3.392-1.298-5.312-0.237 3.646-3.023 6.617-3.777 10.27-1.022 4.946 0.765 8.568 7.555 12.394z"></path>
</symbol>
<symbol id="icon-briefcase" viewBox="0 0 32 32">
<path d="M30 8h-8v-2c0-1.1-0.9-2-2-2h-8c-1.1 0-2 0.9-2 2v2h-8c-1.1 0-2 0.9-2 2v18c0 1.1 0.9 2 2 2h28c1.1 0 2-0.9 2-2v-18c0-1.1-0.9-2-2-2zM12 6.004c0.001-0.001 0.002-0.003 0.004-0.004h7.993c0.001 0.001 0.003 0.002 0.004 0.004v1.996h-8v-1.996zM30 16h-4v3c0 0.55-0.45 1-1 1h-2c-0.55 0-1-0.45-1-1v-3h-12v3c0 0.55-0.45 1-1 1h-2c-0.55 0-1-0.45-1-1v-3h-4v-2h28v2z"></path>
</symbol>
<symbol id="icon-power" viewBox="0 0 32 32">
<path d="M12 0l-12 16h12l-8 16 28-20h-16l12-12z"></path>
</symbol>
<symbol id="icon-earth" viewBox="0 0 32 32">
<path d="M16 0c-8.837 0-16 7.163-16 16s7.163 16 16 16 16-7.163 16-16-7.163-16-16-16zM16 30c-1.967 0-3.84-0.407-5.538-1.139l7.286-8.197c0.163-0.183 0.253-0.419 0.253-0.664v-3c0-0.552-0.448-1-1-1-3.531 0-7.256-3.671-7.293-3.707-0.188-0.188-0.442-0.293-0.707-0.293h-4c-0.552 0-1 0.448-1 1v6c0 0.379 0.214 0.725 0.553 0.894l3.447 1.724v5.871c-3.627-2.53-6-6.732-6-11.489 0-2.147 0.484-4.181 1.348-6h3.652c0.265 0 0.52-0.105 0.707-0.293l4-4c0.188-0.188 0.293-0.442 0.293-0.707v-2.419c1.268-0.377 2.61-0.581 4-0.581 2.2 0 4.281 0.508 6.134 1.412-0.13 0.109-0.256 0.224-0.376 0.345-1.133 1.133-1.757 2.64-1.757 4.243s0.624 3.109 1.757 4.243c1.139 1.139 2.663 1.758 4.239 1.758 0.099 0 0.198-0.002 0.297-0.007 0.432 1.619 1.211 5.833-0.263 11.635-0.014 0.055-0.022 0.109-0.026 0.163-2.541 2.596-6.084 4.208-10.004 4.208z"></path>
</symbol>
<symbol id="icon-star-half" viewBox="0 0 32 32">
<path d="M32 12.408l-11.056-1.607-4.944-10.018-4.944 10.018-11.056 1.607 8 7.798-1.889 11.011 9.889-5.199 9.889 5.199-1.889-11.011 8-7.798zM16 23.547l-0.029 0.015 0.029-17.837 3.492 7.075 7.807 1.134-5.65 5.507 1.334 7.776-6.983-3.671z"></path>
</symbol>
<symbol id="icon-star-full" viewBox="0 0 32 32">
<path d="M32 12.408l-11.056-1.607-4.944-10.018-4.944 10.018-11.056 1.607 8 7.798-1.889 11.011 9.889-5.199 9.889 5.199-1.889-11.011 8-7.798z"></path>
</symbol>
<symbol id="icon-enter" viewBox="0 0 32 32">
<path d="M12 16h-10v-4h10v-4l6 6-6 6zM32 0v26l-12 6v-6h-12v-8h2v6h10v-18l8-4h-18v8h-2v-10z"></path>
</symbol>
<symbol id="icon-exit" viewBox="0 0 32 32">
<path d="M24 20v-4h-10v-4h10v-4l6 6zM22 18v8h-10v6l-12-6v-26h22v10h-2v-8h-16l8 4v18h8v-6z"></path>
</symbol>
<symbol id="icon-mail2" viewBox="0 0 32 32">
<path d="M26.667 0h-21.333c-2.934 0-5.334 2.4-5.334 5.334v21.332c0 2.936 2.4 5.334 5.334 5.334h21.333c2.934 0 5.333-2.398 5.333-5.334v-21.332c0-2.934-2.399-5.334-5.333-5.334zM26.667 4c0.25 0 0.486 0.073 0.688 0.198l-11.355 9.388-11.355-9.387c0.202-0.125 0.439-0.198 0.689-0.198h21.333zM5.334 28c-0.060 0-0.119-0.005-0.178-0.013l7.051-9.78-0.914-0.914-7.293 7.293v-19.098l12 14.512 12-14.512v19.098l-7.293-7.293-0.914 0.914 7.051 9.78c-0.058 0.008-0.117 0.013-0.177 0.013h-21.333z"></path>
</symbol>
<symbol id="icon-github" viewBox="0 0 32 32">
<path d="M16 0.395c-8.836 0-16 7.163-16 16 0 7.069 4.585 13.067 10.942 15.182 0.8 0.148 1.094-0.347 1.094-0.77 0-0.381-0.015-1.642-0.022-2.979-4.452 0.968-5.391-1.888-5.391-1.888-0.728-1.849-1.776-2.341-1.776-2.341-1.452-0.993 0.11-0.973 0.11-0.973 1.606 0.113 2.452 1.649 2.452 1.649 1.427 2.446 3.743 1.739 4.656 1.33 0.143-1.034 0.558-1.74 1.016-2.14-3.554-0.404-7.29-1.777-7.29-7.907 0-1.747 0.625-3.174 1.649-4.295-0.166-0.403-0.714-2.030 0.155-4.234 0 0 1.344-0.43 4.401 1.64 1.276-0.355 2.645-0.532 4.005-0.539 1.359 0.006 2.729 0.184 4.008 0.539 3.054-2.070 4.395-1.64 4.395-1.64 0.871 2.204 0.323 3.831 0.157 4.234 1.026 1.12 1.647 2.548 1.647 4.295 0 6.145-3.743 7.498-7.306 7.895 0.574 0.497 1.085 1.47 1.085 2.963 0 2.141-0.019 3.864-0.019 4.391 0 0.426 0.288 0.925 1.099 0.768 6.354-2.118 10.933-8.113 10.933-15.18 0-8.837-7.164-16-16-16z"></path>
</symbol>
<symbol id="icon-paypal" viewBox="0 0 32 32">
<path d="M29.063 9.644c-1.494 6.631-6.106 10.131-13.375 10.131h-2.419l-1.681 10.675h-2.025l-0.106 0.688c-0.069 0.456 0.281 0.863 0.738 0.863h5.175c0.613 0 1.131-0.444 1.231-1.050l0.050-0.262 0.975-6.181 0.063-0.337c0.094-0.606 0.619-1.050 1.231-1.050h0.769c5.012 0 8.938-2.038 10.088-7.925 0.431-2.238 0.269-4.137-0.712-5.55z"></path>
<path d="M25.969 2.413c-1.481-1.688-4.163-2.413-7.587-2.413h-9.944c-0.7 0-1.3 0.506-1.406 1.2l-4.144 26.262c-0.081 0.519 0.319 0.988 0.844 0.988h6.144l1.544-9.781-0.050 0.306c0.106-0.694 0.7-1.2 1.4-1.2h2.919c5.731 0 10.219-2.325 11.531-9.063 0.038-0.2 0.075-0.394 0.1-0.581 0.387-2.487 0-4.188-1.35-5.719z"></path>
</symbol>
<symbol id="icon-css3" viewBox="0 0 32 32">
<path d="M4.762 1.516l-1.074 5.373h21.867l-0.684 3.47h-21.881l-1.059 5.372h21.865l-1.219 6.127-8.813 2.919-7.638-2.919 0.523-2.658h-5.372l-1.278 6.448 12.632 4.834 14.563-4.834 4.805-24.133z"></path>
</symbol>
</defs>
</svg>
